<svg width="23" height="24" viewBox="0 0 23 24" fill="none" xmlns="http://www.w3.org/2000/svg">
<path fill-rule="evenodd" clip-rule="evenodd" d="M0 0.985783C0 0.724337 0.103859 0.473599 0.288729 0.288729C0.473599 0.103859 0.724337 0 0.985783 0H1.71921C2.96786 0 3.71706 0.839887 4.14423 1.62063C4.42945 2.14112 4.63581 2.74442 4.79748 3.2912C4.84121 3.28775 4.88505 3.286 4.92892 3.28594H21.356C22.4469 3.28594 23.2356 4.32956 22.9359 5.37975L20.5332 13.8036C20.3178 14.5592 19.862 15.224 19.235 15.6974C18.6079 16.1707 17.8437 16.4269 17.058 16.4271H9.24007C8.44815 16.4271 7.67814 16.1671 7.04838 15.6869C6.41863 15.2068 5.96399 14.5331 5.75434 13.7694L4.75542 10.126L3.0993 4.54249L3.09799 4.53197L3.09745 4.53002C2.89261 3.78551 2.7008 3.08833 2.41451 2.56829C2.13981 2.06226 1.91899 1.97157 1.72052 1.97157H0.985783C0.724337 1.97157 0.473599 1.86771 0.288729 1.68284C0.103859 1.49797 0 1.24723 0 0.985783ZM6.66784 9.64753L7.65494 13.2476C7.85209 13.96 8.50008 14.4555 9.24007 14.4555H17.058C17.4151 14.4555 17.7625 14.3392 18.0476 14.124C18.3327 13.9089 18.5399 13.6068 18.6379 13.2634L20.9209 5.25751H5.36923L6.64944 9.57787L6.66784 9.64753ZM11.1722 20.3729C11.1722 21.0701 10.8952 21.7387 10.4022 22.2317C9.90925 22.7247 9.24062 23.0017 8.54343 23.0017C7.84624 23.0017 7.1776 22.7247 6.68462 22.2317C6.19163 21.7387 5.91467 21.0701 5.91467 20.3729C5.91467 19.6757 6.19163 19.0071 6.68462 18.5141C7.1776 18.0211 7.84624 17.7441 8.54343 17.7441C9.24062 17.7441 9.90925 18.0211 10.4022 18.5141C10.8952 19.0071 11.1722 19.6757 11.1722 20.3729ZM19.6029 22.2317C20.0959 21.7387 20.3729 21.0701 20.3729 20.3729C20.3729 19.6757 20.0959 19.0071 19.6029 18.5141C19.1099 18.0211 18.4413 17.7441 17.7441 17.7441C17.0469 17.7441 16.3783 18.0211 15.8853 18.5141C15.3923 19.0071 15.1154 19.6757 15.1154 20.3729C15.1154 21.0701 15.3923 21.7387 15.8853 22.2317C16.3783 22.7247 17.0469 23.0017 17.7441 23.0017C18.4413 23.0017 19.1099 22.7247 19.6029 22.2317Z" fill="#121212"/>
</svg>
