<svg width="82" height="36" viewBox="0 0 82 36" fill="none" xmlns="http://www.w3.org/2000/svg">
<path d="M12 9.248V11.96H5.016V16.256H10.368V18.92H5.016V26H1.656V9.248H12ZM20.2866 26.216C19.0066 26.216 17.8546 25.936 16.8306 25.376C15.8066 24.8 14.9986 23.992 14.4066 22.952C13.8306 21.912 13.5426 20.712 13.5426 19.352C13.5426 17.992 13.8386 16.792 14.4306 15.752C15.0386 14.712 15.8626 13.912 16.9026 13.352C17.9426 12.776 19.1026 12.488 20.3826 12.488C21.6626 12.488 22.8226 12.776 23.8626 13.352C24.9026 13.912 25.7186 14.712 26.3106 15.752C26.9186 16.792 27.2226 17.992 27.2226 19.352C27.2226 20.712 26.9106 21.912 26.2866 22.952C25.6786 23.992 24.8466 24.8 23.7906 25.376C22.7506 25.936 21.5826 26.216 20.2866 26.216ZM20.2866 23.288C20.8946 23.288 21.4626 23.144 21.9906 22.856C22.5346 22.552 22.9666 22.104 23.2866 21.512C23.6066 20.92 23.7666 20.2 23.7666 19.352C23.7666 18.088 23.4306 17.12 22.7586 16.448C22.1026 15.76 21.2946 15.416 20.3346 15.416C19.3746 15.416 18.5666 15.76 17.9106 16.448C17.2706 17.12 16.9506 18.088 16.9506 19.352C16.9506 20.616 17.2626 21.592 17.8866 22.28C18.5266 22.952 19.3266 23.288 20.2866 23.288ZM35.5913 26.216C34.3113 26.216 33.1593 25.936 32.1353 25.376C31.1113 24.8 30.3033 23.992 29.7113 22.952C29.1353 21.912 28.8473 20.712 28.8473 19.352C28.8473 17.992 29.1433 16.792 29.7353 15.752C30.3433 14.712 31.1673 13.912 32.2073 13.352C33.2473 12.776 34.4073 12.488 35.6873 12.488C36.9673 12.488 38.1273 12.776 39.1673 13.352C40.2073 13.912 41.0233 14.712 41.6153 15.752C42.2233 16.792 42.5273 17.992 42.5273 19.352C42.5273 20.712 42.2153 21.912 41.5912 22.952C40.9833 23.992 40.1513 24.8 39.0953 25.376C38.0553 25.936 36.8873 26.216 35.5913 26.216ZM35.5913 23.288C36.1993 23.288 36.7673 23.144 37.2953 22.856C37.8393 22.552 38.2713 22.104 38.5913 21.512C38.9113 20.92 39.0713 20.2 39.0713 19.352C39.0713 18.088 38.7353 17.12 38.0633 16.448C37.4073 15.76 36.5993 15.416 35.6393 15.416C34.6793 15.416 33.8713 15.76 33.2153 16.448C32.5753 17.12 32.2553 18.088 32.2553 19.352C32.2553 20.616 32.5673 21.592 33.1913 22.28C33.8313 22.952 34.6313 23.288 35.5913 23.288ZM44.1279 19.304C44.1279 17.96 44.3919 16.768 44.9199 15.728C45.4639 14.688 46.1999 13.888 47.1279 13.328C48.0559 12.768 49.0879 12.488 50.2239 12.488C51.0879 12.488 51.9119 12.68 52.6959 13.064C53.4799 13.432 54.1039 13.928 54.5679 14.552V8.24H57.9759V26H54.5679V24.032C54.1519 24.688 53.5679 25.216 52.8159 25.616C52.0639 26.016 51.1919 26.216 50.1999 26.216C49.0799 26.216 48.0559 25.928 47.1279 25.352C46.1999 24.776 45.4639 23.968 44.9199 22.928C44.3919 21.872 44.1279 20.664 44.1279 19.304ZM54.5919 19.352C54.5919 18.536 54.4319 17.84 54.1119 17.264C53.7919 16.672 53.3599 16.224 52.8159 15.92C52.2719 15.6 51.6879 15.44 51.0639 15.44C50.4399 15.44 49.8639 15.592 49.3359 15.896C48.8079 16.2 48.3759 16.648 48.0399 17.24C47.7199 17.816 47.5599 18.504 47.5599 19.304C47.5599 20.104 47.7199 20.808 48.0399 21.416C48.3759 22.008 48.8079 22.464 49.3359 22.784C49.8799 23.104 50.4559 23.264 51.0639 23.264C51.6879 23.264 52.2719 23.112 52.8159 22.808C53.3599 22.488 53.7919 22.04 54.1119 21.464C54.4319 20.872 54.5919 20.168 54.5919 19.352ZM62.9616 11.12C62.3696 11.12 61.8736 10.936 61.4736 10.568C61.0896 10.184 60.8976 9.712 60.8976 9.152C60.8976 8.592 61.0896 8.128 61.4736 7.76C61.8736 7.376 62.3696 7.184 62.9616 7.184C63.5536 7.184 64.0416 7.376 64.4256 7.76C64.8256 8.128 65.0256 8.592 65.0256 9.152C65.0256 9.712 64.8256 10.184 64.4256 10.568C64.0416 10.936 63.5536 11.12 62.9616 11.12ZM64.6176 12.704V26H61.2576V12.704H64.6176ZM80.2973 19.064C80.2973 19.544 80.2653 19.976 80.2013 20.36H70.4813C70.5613 21.32 70.8973 22.072 71.4893 22.616C72.0813 23.16 72.8093 23.432 73.6733 23.432C74.9213 23.432 75.8093 22.896 76.3373 21.824H79.9613C79.5773 23.104 78.8413 24.16 77.7533 24.992C76.6653 25.808 75.3293 26.216 73.7453 26.216C72.4653 26.216 71.3133 25.936 70.2893 25.376C69.2813 24.8 68.4893 23.992 67.9133 22.952C67.3533 21.912 67.0732 20.712 67.0732 19.352C67.0732 17.976 67.3533 16.768 67.9133 15.728C68.4733 14.688 69.2573 13.888 70.2653 13.328C71.2733 12.768 72.4333 12.488 73.7453 12.488C75.0093 12.488 76.1373 12.76 77.1293 13.304C78.1373 13.848 78.9133 14.624 79.4573 15.632C80.0173 16.624 80.2973 17.768 80.2973 19.064ZM76.8173 18.104C76.8013 17.24 76.4893 16.552 75.8813 16.04C75.2733 15.512 74.5293 15.248 73.6493 15.248C72.8173 15.248 72.1133 15.504 71.5373 16.016C70.9773 16.512 70.6333 17.208 70.5053 18.104H76.8173Z" fill="#F1F1F1"/>
<path d="M67.5352 4.1512C67.4477 3.95589 67.1977 3.94807 67.093 4.13245C66.6087 4.97464 65.7415 5.49964 64.7509 5.49964H63.5009C61.8446 5.49964 60.5009 6.84339 60.5009 8.49964C60.5009 8.60901 60.5134 8.7137 60.5243 8.81995C60.5866 9.42501 61 10 61 10C61.1375 10 62 9.8625 62 10C62 10.1375 64.6375 9.5 64.5 9.5C61 9 59.4071 10.4074 59.0384 11.3121C58.9352 11.5668 59.0571 11.8574 59.3118 11.9621C59.568 12.0684 59.8587 11.9449 59.9649 11.6918C59.9884 11.6356 60.2915 10.9434 61.0884 10.2762C61.5946 10.9621 62.5571 11.6168 63.8212 11.4824C66.2743 11.3043 68.0009 9.10432 68.0009 6.41057C68.0009 5.6262 67.8321 4.8137 67.5352 4.1512Z" fill="#97C247"/>
</svg>