<svg width="40" height="40" viewBox="0 0 40 40" fill="none" xmlns="http://www.w3.org/2000/svg">
<path fill-rule="evenodd" clip-rule="evenodd" d="M40 20C40 31.0457 31.0457 40 20 40C8.9543 40 0 31.0457 0 20C0 8.9543 8.9543 0 20 0C31.0457 0 40 8.9543 40 20ZM29.8334 19.207H32.4167C32.4167 12.5808 27.4141 7.58331 20.7788 7.58331V10.1666C26.0256 10.1666 29.8334 13.968 29.8334 19.207ZM24.6667 19.2084C24.6667 16.492 23.508 15.3334 20.7917 15.3334V12.75C24.9573 12.75 27.25 15.0427 27.25 19.2084H24.6667ZM24.3022 22.0284C24.6374 22.018 24.9635 22.1383 25.2117 22.3639L30.4611 27.1379C30.7097 27.3641 30.8604 27.6782 30.8812 28.0137C30.9019 28.3492 30.7911 28.6795 30.5722 28.9346L28.1697 31.7388C27.9466 31.9631 27.6485 32.097 27.3327 32.1147C27.29 32.1173 27.1299 32.125 26.869 32.125C25.0839 32.125 18.6023 31.7466 13.4279 26.5734C7.49654 20.6395 7.86596 12.9903 7.88533 12.6674C7.90331 12.3515 8.0366 12.0532 8.25992 11.8291L11.0628 9.42527C11.3181 9.20654 11.6485 9.09592 11.984 9.1169C12.3195 9.13788 12.6336 9.28882 12.8595 9.53765L17.6322 14.7857C17.8581 15.0337 17.9787 15.36 17.9683 15.6953C17.9579 16.0306 17.8175 16.3488 17.5767 16.5824L14.4005 19.6746C14.5387 20.4135 15.005 21.9131 16.5447 23.4541C18.0843 24.9899 19.5801 25.4561 20.3241 25.5982L23.415 22.4194C23.6488 22.179 23.9669 22.0387 24.3022 22.0284Z" fill="#FF9F0D"/>
</svg>
