<svg width="98" height="50" viewBox="0 0 98 50" fill="none" xmlns="http://www.w3.org/2000/svg">
<path fill-rule="evenodd" clip-rule="evenodd" d="M15.5 24.5L10.5 22.5C4.9 22.5 11.5 29.8333 15.5 33.5H78C86.5 33.5 83.5 19.5 78 24.5C72.5 29.5 64 30.5 64 30C61.6 30 63 29 64 28.5C72.4 26.1 81.8333 17.5 85.5 13.5C102.3 15.9 97.1667 9.83331 92.5 6.49996C90.7743 -6.44255 86.0707 4.81064 84.8129 7.82006L84.8128 7.82016C84.6129 8.29851 84.5 8.56854 84.5 8.49996C52.9 -1.90004 49.6667 12.8333 52 21.5C52 23.2274 51.0451 22.3289 50.4549 21.7735C50.191 21.5252 50 21.3455 50 21.5C48.6043 9.86881 53.7021 4.73131 54.8204 4.47614L55 4.50001C54.9652 4.46526 54.9039 4.45707 54.8204 4.47614C28.1522 0.969019 17.4955 16.3516 15.5 24.5ZM0.5 36.5L13.5 50H79L92.5 36.5H0.5ZM25.7076 19.3898C27.758 16.607 35.0461 10.7319 46.9034 11.4969L47.0966 8.50308C34.1539 7.66807 25.9086 14.0596 23.2924 17.6102L25.7076 19.3898Z" fill="#FF9F0D"/>
</svg>
