<svg width="40" height="40" viewBox="0 0 40 40" fill="none" xmlns="http://www.w3.org/2000/svg">
<path d="M20 0C8.95536 0 0 8.95536 0 20C0 31.0446 8.95536 40 20 40C31.0446 40 40 31.0446 40 20C40 8.95536 31.0446 0 20 0ZM27.8795 26.1473L26.6027 27.8884C26.5749 27.9263 26.5399 27.9584 26.4997 27.9827C26.4595 28.007 26.4149 28.0232 26.3685 28.0303C26.322 28.0373 26.2746 28.0351 26.229 28.0238C26.1834 28.0125 26.1404 27.9923 26.1027 27.9643L18.7188 22.5804C18.6727 22.5473 18.6354 22.5037 18.6097 22.4532C18.5841 22.4027 18.571 22.3468 18.5714 22.2902V10C18.5714 9.80357 18.7321 9.64286 18.9286 9.64286H21.0759C21.2723 9.64286 21.433 9.80357 21.433 10V21.0491L27.7991 25.6518C27.9598 25.7634 27.9955 25.9866 27.8795 26.1473Z" fill="#FF9F0D"/>
</svg>
