<svg width="36" height="60" viewBox="0 0 36 60" fill="none" xmlns="http://www.w3.org/2000/svg">
<path fill-rule="evenodd" clip-rule="evenodd" d="M10.4634 3H15.4634C17.6725 3 19.4634 4.79086 19.4634 7V12C19.4634 13.8638 18.1886 15.4299 16.4634 15.874V9.00028C16.4634 4.49982 9.96341 4.49999 9.96339 9.00028V15.9691C7.99023 15.723 6.46338 14.0398 6.46338 12V7C6.46338 4.79086 8.25424 3 10.4634 3ZM9.96339 18.9824C6.33075 18.726 3.46338 15.6979 3.46338 12V7C3.46338 3.13401 6.59739 0 10.4634 0H15.4634C19.3294 0 22.4634 3.13401 22.4634 7V12C22.4634 15.5265 19.8557 18.4439 16.4634 18.9291V21.5003C19.9634 18.5 22.9634 22 22.4634 24.5004C24.9634 20.5 29.4634 23 29.4634 26.0003C32.9634 23 35.9634 26.0003 35.9634 28.5003C35.9634 42.0331 35.029 43.8862 34.0635 45.8012C34.0301 45.8673 33.9968 45.9335 33.9634 46.0003C33.7833 46.3605 33.5951 46.6687 33.4094 46.9729C32.6672 48.1885 31.9634 49.3413 31.9634 53.5003C31.9634 58.7003 24.9634 60.0003 21.4634 60.0003C13.4634 60.0003 11.1301 55.667 10.9634 53.5003C10.9634 45.5004 3.96339 34.5003 0.463386 30.0003C-1.53659 25.5003 3.46338 24.5 5.46339 26.5003L9.96339 31.5V18.9824Z" fill="#FF9F0D"/>
</svg>
