<svg width="40" height="40" viewBox="0 0 40 40" fill="none" xmlns="http://www.w3.org/2000/svg">
<path fill-rule="evenodd" clip-rule="evenodd" d="M20 40C31.0457 40 40 31.0457 40 20C40 8.9543 31.0457 0 20 0C8.9543 0 0 8.9543 0 20C0 31.0457 8.9543 40 20 40ZM10 17.75C10 11.525 14.75 7.5 20 7.5C25.25 7.5 30 11.525 30 17.75C30 21.725 26.9375 26.4 20.8375 31.7875C20.3625 32.2 19.65 32.2 19.175 31.7875C13.0625 26.4 10 21.725 10 17.75ZM17.5 17.5C17.5 18.875 18.625 20 20 20C21.375 20 22.5 18.875 22.5 17.5C22.5 16.125 21.375 15 20 15C18.625 15 17.5 16.125 17.5 17.5Z" fill="#FF9F0D"/>
</svg>
