<svg width="51" height="51" viewBox="0 0 51 51" fill="none" xmlns="http://www.w3.org/2000/svg">
<path d="M51 25.5C51 32.263 48.3134 38.749 43.5312 43.5312C38.749 48.3134 32.263 51 25.5 51C18.737 51 12.251 48.3134 7.46878 43.5312C2.6866 38.749 0 32.263 0 25.5C0 18.737 2.6866 12.251 7.46878 7.46878C12.251 2.6866 18.737 0 25.5 0C32.263 0 38.749 2.6866 43.5312 7.46878C48.3134 12.251 51 18.737 51 25.5ZM21.6431 16.2339C21.4048 16.0643 21.1244 15.9635 20.8326 15.9426C20.5408 15.9217 20.2489 15.9815 19.9888 16.1154C19.7288 16.2494 19.5106 16.4524 19.3582 16.7021C19.2059 16.9519 19.1252 17.2387 19.125 17.5312V33.4688C19.1252 33.7613 19.2059 34.0481 19.3582 34.2979C19.5106 34.5476 19.7288 34.7506 19.9888 34.8845C20.2489 35.0185 20.5408 35.0783 20.8326 35.0574C21.1244 35.0365 21.4048 34.9357 21.6431 34.7661L32.7994 26.7973C33.006 26.6499 33.1744 26.4552 33.2906 26.2296C33.4068 26.0039 33.4674 25.7538 33.4674 25.5C33.4674 25.2462 33.4068 24.9961 33.2906 24.7704C33.1744 24.5448 33.006 24.3501 32.7994 24.2027L21.6431 16.2339Z" fill="#404040"/>
</svg>
