<svg width="103" height="52" viewBox="0 0 103 52" fill="none" xmlns="http://www.w3.org/2000/svg">
<path fill-rule="evenodd" clip-rule="evenodd" d="M75.9999 10.5H89.4999L102.5 23.5V43H96.9999C97.3333 39.6667 95.7999 33 86.9999 33C78.1999 33 75.9999 39.6667 75.9999 43H43.9999C44.3333 39.6667 42.7999 33 33.9999 33C25.1999 33 23.3333 39.6667 23.4999 43H14V29L14.0776 28.5H23.5C24.3284 28.5 25 27.8284 25 27C25 26.1716 24.3284 25.5 23.5 25.5H14.5431H1.5C0.671574 25.5 0 24.8284 0 24C0 23.1716 0.671573 22.5 1.5 22.5H15.0086H34.5C35.3284 22.5 36 21.8284 36 21C36 20.1716 35.3284 19.5 34.5 19.5H34H15.4741H8C6.89543 19.5 6 18.6046 6 17.5C6 16.3954 6.89543 15.5 8 15.5H16.0948H28.5C29.3284 15.5 30 14.8284 30 14C30 13.1716 29.3284 12.5 28.5 12.5H16.5603H3.5C2.67157 12.5 2 11.8284 2 11C2 10.1716 2.67157 9.5 3.5 9.5H17.0259H32.5C33.3284 9.5 34 8.82843 34 8C34 7.17157 33.3284 6.5 32.5 6.5H17.4914H11C9.89543 6.5 9 5.60457 9 4.5C9 3.39543 9.89543 2.5 11 2.5H18.1121L18.5 0H75.9999V10.5ZM78.5 13.5V23H97V22L88.5 13.5H78.5ZM86.5015 47.503C88.9876 47.503 91.003 45.4876 91.003 43.0015C91.003 40.5154 88.9876 38.5 86.5015 38.5C84.0154 38.5 82 40.5154 82 43.0015C82 45.4876 84.0154 47.503 86.5015 47.503ZM86.5015 51.503C91.1967 51.503 95.003 47.6967 95.003 43.0015C95.003 38.3062 91.1967 34.5 86.5015 34.5C81.8062 34.5 78 38.3062 78 43.0015C78 47.6967 81.8062 51.503 86.5015 51.503ZM38.003 43.0015C38.003 45.4876 35.9876 47.503 33.5015 47.503C31.0154 47.503 29 45.4876 29 43.0015C29 40.5154 31.0154 38.5 33.5015 38.5C35.9876 38.5 38.003 40.5154 38.003 43.0015ZM42.003 43.0015C42.003 47.6967 38.1967 51.503 33.5015 51.503C28.8062 51.503 25 47.6967 25 43.0015C25 38.3062 28.8062 34.5 33.5015 34.5C38.1967 34.5 42.003 38.3062 42.003 43.0015Z" fill="#FF9F0D"/>
</svg>
